<svg xmlns="http://www.w3.org/2000/svg" viewBox="0 0 1004 1004"><defs><style>.a{isolation:isolate;}.b{fill:#fedb41;}.c{fill:#fea832;}.d{opacity:0.53;mix-blend-mode:soft-light;}</style></defs><title>fair Coin</title><g class="a"><path class="b" d="M976.13,496.53c0,259.85-211.09,474.63-470.94,474.63h-1.84c-259-1-472.79-215.38-472.79-474.62S244.33,26.58,503.35,25.61c.61,0,1.23,0,1.84,0A471.63,471.63,0,0,1,576.85,31q5.85.89,11.64,1.94a464.28,464.28,0,0,1,51.12,12.13q8.32,2.49,16.52,5.26c5.49,1.87,10.9,3.81,16.28,5.86s10.71,4.17,16,6.43,10.51,4.56,15.7,7c3.45,1.6,6.89,3.26,10.28,5,1.7.85,3.4,1.7,5.1,2.57q17.76,9.12,34.65,19.65c3.19,2,6.39,4,9.55,6.13a472.88,472.88,0,0,1,74.42,60.69C923.35,248.87,976.13,366.6,976.13,496.53Z"/><path class="c" d="M505.19,136.39c-198.35,0-363.82,161.78-363.82,360.13S306.84,860.35,505.19,860.35,865.33,694.87,865.33,496.52,703.55,136.39,505.19,136.39Z"/><polygon class="b" points="585.22 415.28 504.02 594.57 422.82 416.25 504.02 236.31 585.22 415.28"/><polyline class="b" points="495.24 603.9 400.63 395.16 330.17 550.51 425.62 757.34 495.24 603.63"/><polyline class="b" points="513.13 604.08 607.73 395.33 677.65 548.18 582.19 757.65 513.13 603.81 582.75 757.51"/><path class="d" d="M976.13,496.53c0,259.85-211.09,474.63-470.94,474.63h-1.84V25.61c.61,0,1.23,0,1.84,0A471.63,471.63,0,0,1,576.85,31q5.85.89,11.64,1.94a464.28,464.28,0,0,1,51.12,12.13q8.32,2.49,16.52,5.26c5.49,1.87,10.9,3.81,16.28,5.86s10.71,4.17,16,6.43,10.51,4.56,15.7,7c3.45,1.6,6.89,3.26,10.28,5,1.7.85,3.4,1.7,5.1,2.57q17.76,9.12,34.65,19.65c3.19,2,6.39,4,9.55,6.13a472.88,472.88,0,0,1,74.42,60.69C923.35,248.87,976.13,366.6,976.13,496.53Z"/></g></svg>