<svg xmlns="http://www.w3.org/2000/svg" viewBox="0 0 512 512"><title>logo</title><circle cx="254.7" cy="256.3" r="240.7" style="fill:#1a2b63"/><path d="M267.042,390.79v-37.8a19.277,19.277,0,0,1-4.514.564H246.942a18.813,18.813,0,0,1-4.513-.564v37.8Z" style="fill:#ffaf10"/><path d="M253.29,390.79V353.553h-6.418a18.821,18.821,0,0,1-4.514-.564v37.8Z" style="fill:#ef9614"/><path d="M254.7,336.7a75.71,75.71,0,0,1-26.87-4.937v3.456a19.052,19.052,0,0,0,19.042,19.041h15.586A19.051,19.051,0,0,0,281.5,335.217v-3.456A75.031,75.031,0,0,1,254.7,336.7Z" style="fill:#ffd00d"/><path d="M249.622,336.486a75.59,75.59,0,0,1-21.862-4.725v3.456A19.051,19.051,0,0,0,246.8,354.258h15.586a14.913,14.913,0,0,0,3.1-.282A19,19,0,0,1,249.622,336.486Z" style="fill:#ffaf10"/><path d="M282.205,405.107v-11.99a3.537,3.537,0,0,0-3.527-3.526H230.722a3.537,3.537,0,0,0-3.527,3.526v11.99Z" style="fill:#ef8318"/><path d="M248.353,405.107v-11.99a3.537,3.537,0,0,1,3.526-3.526H230.722a3.537,3.537,0,0,0-3.527,3.526v11.99Z" style="fill:#db722c"/><path d="M321.346,465.052v-57.83a3.537,3.537,0,0,0-3.527-3.526H191.581a3.537,3.537,0,0,0-3.527,3.526v57.83Z" style="fill:#a05f33"/><path d="M198.986,465.052v-57.83a3.537,3.537,0,0,1,3.526-3.526H191.581a3.537,3.537,0,0,0-3.527,3.526v57.83Z" style="fill:#87502a"/><path d="M301.951,449.537a3.536,3.536,0,0,1-3.526,3.526h-87.45a3.536,3.536,0,0,1-3.526-3.526v-29.62a3.536,3.536,0,0,1,3.526-3.526h87.45a3.536,3.536,0,0,1,3.526,3.526Z" style="fill:#293d7c"/><path d="M221.483,449.537v-29.62a3.536,3.536,0,0,1,3.526-3.526H210.9a3.537,3.537,0,0,0-3.526,3.526v29.62a3.536,3.536,0,0,0,3.526,3.526h14.1A3.583,3.583,0,0,1,221.483,449.537Z" style="fill:#1a2b63"/><path d="M336.156,464.347H173.244a3.537,3.537,0,0,0-3.526,3.526c0,4.584,0,9.1.071,13.682a231.186,231.186,0,0,0,35.121,10.226,242.16,242.16,0,0,0,48.45,5.148c8.251.071,15.939-.352,22.709-.916a239.033,239.033,0,0,0,28.492-4.232,231.449,231.449,0,0,0,35.121-10.3V467.8A3.523,3.523,0,0,0,336.156,464.347Z" style="fill:#bf7e52"/><path d="M191.228,467.873a3.734,3.734,0,0,1,1.058-2.468,3.59,3.59,0,0,1,2.468-1.058h-21.51a3.537,3.537,0,0,0-3.526,3.526c0,4.584,0,9.1.071,13.682,3.1,1.2,6.417,2.327,9.8,3.456,4.02,1.34,7.9,2.468,11.637,3.526C190.946,477.958,190.946,470.13,191.228,467.873Z" style="fill:#aa6b3f"/><path d="M373.322,153.687H345.959v5.924a2.83,2.83,0,0,1-2.821,2.821H331.36a.666.666,0,0,0-.705.705v8.181H367.61a112.594,112.594,0,0,1-36.955,78.071v11.284a75.963,75.963,0,0,1-.987,12.059,130.7,130.7,0,0,0,55.714-106.985A12.1,12.1,0,0,0,373.322,153.687Z" style="fill:#ffaf10"/><path d="M178.675,260.673V249.389a112.594,112.594,0,0,1-36.955-78.071h36.955v-8.181a.666.666,0,0,0-.706-.705H166.121a2.83,2.83,0,0,1-2.821-2.821v-5.924H136.007a12.1,12.1,0,0,0-12.059,12.06,130.613,130.613,0,0,0,55.714,106.985A75.846,75.846,0,0,1,178.675,260.673Z" style="fill:#ffd00d"/><path d="M177.969,162.5v98.241a76.7,76.7,0,0,0,153.391-.07V162.5Z" style="fill:#ef8318"/><path d="M193.344,260.673V161.8h-15.3v98.946A76.69,76.69,0,0,0,254.7,337.4c2.539,0,5.078-.141,7.617-.352A76.762,76.762,0,0,1,193.344,260.673Z" style="fill:#db722c"/><circle cx="254.7" cy="245.369" r="52.188" style="fill:#db722c"/><path d="M215.912,245.3A52.237,52.237,0,0,1,261.4,193.533a52.188,52.188,0,1,0,0,103.53A52.13,52.13,0,0,1,215.912,245.3Z" style="fill:#c95e23"/><path d="M346.734,159.681a3.537,3.537,0,0,1-3.526,3.527H166.192a3.536,3.536,0,0,1-3.526-3.527V139.229a3.537,3.537,0,0,1,3.526-3.526H343.208a3.536,3.536,0,0,1,3.526,3.526Z" style="fill:#ffd00d"/><path d="M184.176,159.681V139.229A3.537,3.537,0,0,1,187.7,135.7h-21.51a3.536,3.536,0,0,0-3.526,3.526v20.452a3.537,3.537,0,0,0,3.526,3.527H187.7A3.536,3.536,0,0,1,184.176,159.681Z" style="fill:#ffaf10"/><path d="M93.9,405.107A2.054,2.054,0,0,1,91.93,403.7c-4.091-12.06-7.123-15.092-19.113-19.112a2.088,2.088,0,0,1,0-3.949c12.06-4.091,15.093-7.123,19.113-19.112a2.12,2.12,0,0,1,1.974-1.411,2.054,2.054,0,0,1,1.975,1.411c4.09,12.059,7.123,15.092,19.112,19.112a2.087,2.087,0,0,1,0,3.949c-12.06,4.09-15.092,7.123-19.112,19.112A2.226,2.226,0,0,1,93.9,405.107Z" style="fill:#ffd00d"/><path d="M343.913,104.32a2.054,2.054,0,0,1-1.974-1.411c-4.091-12.059-7.123-15.092-19.112-19.112a2.087,2.087,0,0,1,0-3.949c12.059-4.091,15.092-7.123,19.112-19.112a2.12,2.12,0,0,1,1.974-1.411,2.054,2.054,0,0,1,1.975,1.411C349.979,72.8,353.011,75.828,365,79.848a2.087,2.087,0,0,1,0,3.949c-12.059,4.091-15.092,7.123-19.112,19.112A2.226,2.226,0,0,1,343.913,104.32Z" style="fill:#ffd00d"/><path d="M440.532,327.882a1.849,1.849,0,0,1-1.622-1.128c-3.244-9.591-5.642-11.989-15.233-15.233a1.613,1.613,0,0,1-1.129-1.622,1.848,1.848,0,0,1,1.129-1.622c9.591-3.245,11.989-5.642,15.233-15.234a1.613,1.613,0,0,1,1.622-1.128,1.771,1.771,0,0,1,1.622,1.128c3.244,9.592,5.642,11.989,15.233,15.234a1.611,1.611,0,0,1,1.129,1.622,1.85,1.85,0,0,1-1.129,1.622c-9.591,3.244-11.989,5.642-15.233,15.233A1.849,1.849,0,0,1,440.532,327.882Z" style="fill:#fff"/><path d="M111.817,248.331A1.85,1.85,0,0,1,110.2,247.2c-3.244-9.591-5.642-11.989-15.233-15.233a1.613,1.613,0,0,1-1.128-1.622,1.849,1.849,0,0,1,1.128-1.622c9.591-3.244,11.989-5.642,15.233-15.233a1.613,1.613,0,0,1,1.622-1.129,1.773,1.773,0,0,1,1.623,1.129c3.244,9.591,5.641,11.989,15.233,15.233a1.612,1.612,0,0,1,1.128,1.622,1.849,1.849,0,0,1-1.128,1.622c-9.592,3.244-11.989,5.642-15.233,15.233A1.7,1.7,0,0,1,111.817,248.331Z" style="fill:#fff"/><path d="M273.742,431.2H235.658a3.527,3.527,0,0,1,0-7.053h38.084a3.492,3.492,0,0,1,3.526,3.526A3.537,3.537,0,0,1,273.742,431.2Z" style="fill:#fff"/><path d="M265.279,443.9H244.121a3.526,3.526,0,0,1,0-7.052h21.158a3.492,3.492,0,0,1,3.526,3.526A3.536,3.536,0,0,1,265.279,443.9Z" style="fill:#fff"/><path d="M211.68,192.123a1.525,1.525,0,0,1-1.481-1.058c-3.032-9.027-5.289-11.284-14.316-14.317a1.566,1.566,0,0,1,0-2.962c9.027-3.032,11.284-5.289,14.316-14.316a1.566,1.566,0,0,1,2.962,0c3.033,9.027,5.289,11.284,14.317,14.316a1.566,1.566,0,0,1,0,2.962c-9.028,3.033-11.284,5.29-14.317,14.317A1.7,1.7,0,0,1,211.68,192.123Z" style="fill:#fff"/><polygon points="267.042 230.276 254.7 257.569 242.358 230.418 254.7 203.054 267.042 230.276" style="fill:#fedb41"/><polyline points="253.36 258.98 238.973 227.244 228.253 250.87 242.781 282.324 253.36 258.98" style="fill:#fedb41"/><polyline points="256.04 259.05 270.427 227.244 281.076 250.517 266.548 282.394 256.04 258.98 266.689 282.394" style="fill:#fedb41"/></svg>